<?xml version="1.0" encoding="UTF-8" standalone="no"?>
<!DOCTYPE svg PUBLIC "-//W3C//DTD SVG 1.1//EN"
 "http://www.w3.org/Graphics/SVG/1.1/DTD/svg11.dtd">
<!-- Generated by graphviz version 2.38.0 (20140413.2041)
 -->
<!-- Title: mc Pages: 1 -->
<svg width="720pt" height="618pt"
 viewBox="0.00 0.00 720.00 617.54" xmlns="http://www.w3.org/2000/svg" xmlns:xlink="http://www.w3.org/1999/xlink">
<g id="graph0" class="graph" transform="scale(0.508729 0.508729) rotate(0) translate(4 1209.88)">
<title>mc</title>
<polygon fill="white" stroke="none" points="-4,4 -4,-1209.88 1411.29,-1209.88 1411.29,4 -4,4"/>
<!-- ROOT -->
<g id="node1" class="node"><title>ROOT</title>
<ellipse fill="rosybrown" stroke="rosybrown" cx="951.146" cy="-1179.01" rx="84.2917" ry="26.7407"/>
<text text-anchor="start" x="900.146" y="-1182.81" font-family="Times,serif" font-size="14.00">L = M:3, C:3, B:1</text>
<text text-anchor="start" x="899.646" y="-1167.81" font-family="Times,serif" font-size="14.00">R = M:0, C:0, B:0</text>
</g>
<!-- N&#45;4 -->
<g id="node2" class="node"><title>N&#45;4</title>
<ellipse fill="rosybrown" stroke="rosybrown" cx="579.146" cy="-1074.27" rx="84.2917" ry="26.7407"/>
<text text-anchor="start" x="528.146" y="-1078.07" font-family="Times,serif" font-size="14.00">L = M:2, C:2, B:0</text>
<text text-anchor="start" x="527.646" y="-1063.07" font-family="Times,serif" font-size="14.00">R = M:1, C:1, B:1</text>
</g>
<!-- ROOT&#45;&gt;N&#45;4 -->
<g id="edge1" class="edge"><title>ROOT&#45;&gt;N&#45;4</title>
<path fill="none" stroke="blue" d="M888.425,-1161.02C858.636,-1152.92 822.542,-1143.07 790.146,-1134.14 743.744,-1121.35 691.65,-1106.81 650.834,-1095.39"/>
<polygon fill="blue" stroke="blue" points="651.551,-1091.95 640.977,-1092.63 649.663,-1098.7 651.551,-1091.95"/>
<text text-anchor="middle" x="816.646" y="-1122.94" font-family="Times,serif" font-size="14.00">MC&#45;&gt;RB</text>
</g>
<!-- N&#45;3 -->
<g id="node3" class="node"><title>N&#45;3</title>
<ellipse fill="rosybrown" stroke="rosybrown" cx="765.146" cy="-1074.27" rx="84.2917" ry="26.7407"/>
<text text-anchor="start" x="714.146" y="-1078.07" font-family="Times,serif" font-size="14.00">L = M:3, C:1, B:0</text>
<text text-anchor="start" x="713.646" y="-1063.07" font-family="Times,serif" font-size="14.00">R = M:0, C:2, B:1</text>
</g>
<!-- ROOT&#45;&gt;N&#45;3 -->
<g id="edge2" class="edge"><title>ROOT&#45;&gt;N&#45;3</title>
<path fill="none" stroke="black" d="M910.327,-1155.46C882.32,-1139.99 844.976,-1119.37 815.177,-1102.91"/>
<polygon fill="black" stroke="black" points="816.636,-1099.71 806.19,-1097.94 813.251,-1105.84 816.636,-1099.71"/>
<text text-anchor="middle" x="894.646" y="-1122.94" font-family="Times,serif" font-size="14.00">CC&#45;&gt;RB</text>
</g>
<!-- N&#45;2 -->
<g id="node4" class="node"><title>N&#45;2</title>
<ellipse fill="#cd0000" stroke="#cd0000" cx="951.146" cy="-1074.27" rx="84.2917" ry="26.7407"/>
<text text-anchor="start" x="900.146" y="-1078.07" font-family="Times,serif" font-size="14.00">L = M:1, C:3, B:0</text>
<text text-anchor="start" x="899.646" y="-1063.07" font-family="Times,serif" font-size="14.00">R = M:2, C:0, B:1</text>
</g>
<!-- ROOT&#45;&gt;N&#45;2 -->
<g id="edge3" class="edge"><title>ROOT&#45;&gt;N&#45;2</title>
<path fill="none" stroke="black" d="M951.146,-1152.09C951.146,-1139.8 951.146,-1124.91 951.146,-1111.52"/>
<polygon fill="black" stroke="black" points="954.646,-1111.19 951.146,-1101.19 947.646,-1111.19 954.646,-1111.19"/>
<text text-anchor="middle" x="979.646" y="-1122.94" font-family="Times,serif" font-size="14.00">MM&#45;&gt;RB</text>
</g>
<!-- N&#45;1 -->
<g id="node5" class="node"><title>N&#45;1</title>
<ellipse fill="rosybrown" stroke="rosybrown" cx="1137.15" cy="-1074.27" rx="84.2917" ry="26.7407"/>
<text text-anchor="start" x="1086.15" y="-1078.07" font-family="Times,serif" font-size="14.00">L = M:3, C:2, B:0</text>
<text text-anchor="start" x="1085.65" y="-1063.07" font-family="Times,serif" font-size="14.00">R = M:0, C:1, B:1</text>
</g>
<!-- ROOT&#45;&gt;N&#45;1 -->
<g id="edge4" class="edge"><title>ROOT&#45;&gt;N&#45;1</title>
<path fill="none" stroke="black" d="M991.964,-1155.46C1019.97,-1139.99 1057.32,-1119.37 1087.11,-1102.91"/>
<polygon fill="black" stroke="black" points="1089.04,-1105.84 1096.1,-1097.94 1085.66,-1099.71 1089.04,-1105.84"/>
<text text-anchor="middle" x="1076.15" y="-1122.94" font-family="Times,serif" font-size="14.00">C&#45;&gt;RB</text>
</g>
<!-- N&#45;0 -->
<g id="node6" class="node"><title>N&#45;0</title>
<ellipse fill="#cd0000" stroke="#cd0000" cx="1323.15" cy="-1074.27" rx="84.2917" ry="26.7407"/>
<text text-anchor="start" x="1272.15" y="-1078.07" font-family="Times,serif" font-size="14.00">L = M:2, C:3, B:0</text>
<text text-anchor="start" x="1271.65" y="-1063.07" font-family="Times,serif" font-size="14.00">R = M:1, C:0, B:1</text>
</g>
<!-- ROOT&#45;&gt;N&#45;0 -->
<g id="edge5" class="edge"><title>ROOT&#45;&gt;N&#45;0</title>
<path fill="none" stroke="black" d="M1013.49,-1160.88C1070.04,-1145.33 1155.7,-1121.75 1230.15,-1101.14 1237.03,-1099.24 1244.2,-1097.25 1251.37,-1095.26"/>
<polygon fill="black" stroke="black" points="1252.42,-1098.6 1261.12,-1092.55 1250.55,-1091.85 1252.42,-1098.6"/>
<text text-anchor="middle" x="1184.15" y="-1122.94" font-family="Times,serif" font-size="14.00">M&#45;&gt;RB</text>
</g>
<!-- N&#45;6 -->
<g id="node7" class="node"><title>N&#45;6</title>
<ellipse fill="#cd0000" stroke="#cd0000" cx="548.146" cy="-969.531" rx="84.2917" ry="26.7407"/>
<text text-anchor="start" x="497.146" y="-973.331" font-family="Times,serif" font-size="14.00">L = M:2, C:3, B:1</text>
<text text-anchor="start" x="496.646" y="-958.331" font-family="Times,serif" font-size="14.00">R = M:1, C:0, B:0</text>
</g>
<!-- N&#45;4&#45;&gt;N&#45;6 -->
<g id="edge6" class="edge"><title>N&#45;4&#45;&gt;N&#45;6</title>
<path fill="none" stroke="black" d="M571.323,-1047.35C567.578,-1034.93 563.034,-1019.87 558.964,-1006.39"/>
<polygon fill="black" stroke="black" points="562.205,-1005.01 555.966,-996.448 555.504,-1007.03 562.205,-1005.01"/>
<text text-anchor="middle" x="586.146" y="-1018.2" font-family="Times,serif" font-size="14.00">C&#45;&gt;LB</text>
</g>
<!-- N&#45;5 -->
<g id="node8" class="node"><title>N&#45;5</title>
<ellipse fill="rosybrown" stroke="rosybrown" cx="734.146" cy="-969.531" rx="84.2917" ry="26.7407"/>
<text text-anchor="start" x="683.146" y="-973.331" font-family="Times,serif" font-size="14.00">L = M:3, C:2, B:1</text>
<text text-anchor="start" x="682.646" y="-958.331" font-family="Times,serif" font-size="14.00">R = M:0, C:1, B:0</text>
</g>
<!-- N&#45;4&#45;&gt;N&#45;5 -->
<g id="edge7" class="edge"><title>N&#45;4&#45;&gt;N&#45;5</title>
<path fill="none" stroke="blue" d="M614.706,-1049.7C637.154,-1034.82 666.319,-1015.49 690.21,-999.653"/>
<polygon fill="blue" stroke="blue" points="692.35,-1002.43 698.751,-993.992 688.482,-996.6 692.35,-1002.43"/>
<text text-anchor="middle" x="687.646" y="-1018.2" font-family="Times,serif" font-size="14.00">M&#45;&gt;LB</text>
</g>
<!-- N&#45;15 -->
<g id="node9" class="node"><title>N&#45;15</title>
<ellipse fill="#cd0000" stroke="#cd0000" cx="548.146" cy="-864.791" rx="84.2917" ry="26.7407"/>
<text text-anchor="start" x="497.146" y="-868.591" font-family="Times,serif" font-size="14.00">L = M:2, C:1, B:0</text>
<text text-anchor="start" x="496.646" y="-853.591" font-family="Times,serif" font-size="14.00">R = M:1, C:2, B:1</text>
</g>
<!-- N&#45;5&#45;&gt;N&#45;15 -->
<g id="edge8" class="edge"><title>N&#45;5&#45;&gt;N&#45;15</title>
<path fill="none" stroke="black" d="M693.327,-945.984C665.32,-930.514 627.976,-909.887 598.177,-893.427"/>
<polygon fill="black" stroke="black" points="599.636,-890.234 589.19,-888.462 596.251,-896.361 599.636,-890.234"/>
<text text-anchor="middle" x="679.646" y="-913.461" font-family="Times,serif" font-size="14.00">MC&#45;&gt;RB</text>
</g>
<!-- N&#45;14 -->
<g id="node10" class="node"><title>N&#45;14</title>
<ellipse fill="rosybrown" stroke="rosybrown" cx="734.146" cy="-864.791" rx="84.2917" ry="26.7407"/>
<text text-anchor="start" x="683.146" y="-868.591" font-family="Times,serif" font-size="14.00">L = M:3, C:0, B:0</text>
<text text-anchor="start" x="682.646" y="-853.591" font-family="Times,serif" font-size="14.00">R = M:0, C:3, B:1</text>
</g>
<!-- N&#45;5&#45;&gt;N&#45;14 -->
<g id="edge9" class="edge"><title>N&#45;5&#45;&gt;N&#45;14</title>
<path fill="none" stroke="blue" d="M734.146,-942.605C734.146,-930.316 734.146,-915.427 734.146,-902.042"/>
<polygon fill="blue" stroke="blue" points="737.646,-901.708 734.146,-891.708 730.646,-901.708 737.646,-901.708"/>
<text text-anchor="middle" x="758.646" y="-913.461" font-family="Times,serif" font-size="14.00">CC&#45;&gt;RB</text>
</g>
<!-- N&#45;13 -->
<g id="node11" class="node"><title>N&#45;13</title>
<ellipse fill="#cd0000" stroke="#cd0000" cx="920.146" cy="-864.791" rx="84.2917" ry="26.7407"/>
<text text-anchor="start" x="869.146" y="-868.591" font-family="Times,serif" font-size="14.00">L = M:1, C:2, B:0</text>
<text text-anchor="start" x="868.646" y="-853.591" font-family="Times,serif" font-size="14.00">R = M:2, C:1, B:1</text>
</g>
<!-- N&#45;5&#45;&gt;N&#45;13 -->
<g id="edge10" class="edge"><title>N&#45;5&#45;&gt;N&#45;13</title>
<path fill="none" stroke="black" d="M774.964,-945.984C802.972,-930.514 840.315,-909.887 870.114,-893.427"/>
<polygon fill="black" stroke="black" points="872.04,-896.361 879.101,-888.462 868.656,-890.234 872.04,-896.361"/>
<text text-anchor="middle" x="867.646" y="-913.461" font-family="Times,serif" font-size="14.00">MM&#45;&gt;RB</text>
</g>
<!-- N&#45;16 -->
<g id="node12" class="node"><title>N&#45;16</title>
<ellipse fill="rosybrown" stroke="rosybrown" cx="734.146" cy="-760.051" rx="84.2917" ry="26.7407"/>
<text text-anchor="start" x="683.146" y="-763.851" font-family="Times,serif" font-size="14.00">L = M:3, C:1, B:1</text>
<text text-anchor="start" x="682.646" y="-748.851" font-family="Times,serif" font-size="14.00">R = M:0, C:2, B:0</text>
</g>
<!-- N&#45;14&#45;&gt;N&#45;16 -->
<g id="edge11" class="edge"><title>N&#45;14&#45;&gt;N&#45;16</title>
<path fill="none" stroke="blue" d="M734.146,-837.865C734.146,-825.576 734.146,-810.687 734.146,-797.302"/>
<polygon fill="blue" stroke="blue" points="737.646,-796.968 734.146,-786.968 730.646,-796.968 737.646,-796.968"/>
<text text-anchor="middle" x="754.146" y="-808.721" font-family="Times,serif" font-size="14.00">C&#45;&gt;LB</text>
</g>
<!-- N&#45;21 -->
<g id="node13" class="node"><title>N&#45;21</title>
<ellipse fill="#cd0000" stroke="#cd0000" cx="548.146" cy="-655.311" rx="84.2917" ry="26.7407"/>
<text text-anchor="start" x="497.146" y="-659.111" font-family="Times,serif" font-size="14.00">L = M:2, C:0, B:0</text>
<text text-anchor="start" x="496.646" y="-644.111" font-family="Times,serif" font-size="14.00">R = M:1, C:3, B:1</text>
</g>
<!-- N&#45;16&#45;&gt;N&#45;21 -->
<g id="edge12" class="edge"><title>N&#45;16&#45;&gt;N&#45;21</title>
<path fill="none" stroke="black" d="M693.327,-736.504C665.32,-721.034 627.976,-700.406 598.177,-683.946"/>
<polygon fill="black" stroke="black" points="599.636,-680.754 589.19,-678.982 596.251,-686.881 599.636,-680.754"/>
<text text-anchor="middle" x="679.646" y="-703.981" font-family="Times,serif" font-size="14.00">MC&#45;&gt;RB</text>
</g>
<!-- N&#45;20 -->
<g id="node14" class="node"><title>N&#45;20</title>
<ellipse fill="rosybrown" stroke="rosybrown" cx="734.146" cy="-655.311" rx="84.2917" ry="26.7407"/>
<text text-anchor="start" x="683.146" y="-659.111" font-family="Times,serif" font-size="14.00">L = M:1, C:1, B:0</text>
<text text-anchor="start" x="682.646" y="-644.111" font-family="Times,serif" font-size="14.00">R = M:2, C:2, B:1</text>
</g>
<!-- N&#45;16&#45;&gt;N&#45;20 -->
<g id="edge13" class="edge"><title>N&#45;16&#45;&gt;N&#45;20</title>
<path fill="none" stroke="blue" d="M734.146,-733.125C734.146,-720.836 734.146,-705.947 734.146,-692.562"/>
<polygon fill="blue" stroke="blue" points="737.646,-692.228 734.146,-682.228 730.646,-692.228 737.646,-692.228"/>
<text text-anchor="middle" x="762.646" y="-703.981" font-family="Times,serif" font-size="14.00">MM&#45;&gt;RB</text>
</g>
<!-- N&#45;18 -->
<g id="node15" class="node"><title>N&#45;18</title>
<ellipse fill="#cd0000" stroke="#cd0000" cx="920.146" cy="-655.311" rx="84.2917" ry="26.7407"/>
<text text-anchor="start" x="869.146" y="-659.111" font-family="Times,serif" font-size="14.00">L = M:2, C:1, B:0</text>
<text text-anchor="start" x="868.646" y="-644.111" font-family="Times,serif" font-size="14.00">R = M:1, C:2, B:1</text>
</g>
<!-- N&#45;16&#45;&gt;N&#45;18 -->
<g id="edge14" class="edge"><title>N&#45;16&#45;&gt;N&#45;18</title>
<path fill="none" stroke="black" d="M774.964,-736.504C802.972,-721.034 840.315,-700.406 870.114,-683.946"/>
<polygon fill="black" stroke="black" points="872.04,-686.881 879.101,-678.982 868.656,-680.754 872.04,-686.881"/>
<text text-anchor="middle" x="861.146" y="-703.981" font-family="Times,serif" font-size="14.00">M&#45;&gt;RB</text>
</g>
<!-- N&#45;26 -->
<g id="node16" class="node"><title>N&#45;26</title>
<ellipse fill="rosybrown" stroke="rosybrown" cx="455.146" cy="-550.571" rx="84.2917" ry="26.7407"/>
<text text-anchor="start" x="404.146" y="-554.371" font-family="Times,serif" font-size="14.00">L = M:2, C:2, B:1</text>
<text text-anchor="start" x="403.646" y="-539.371" font-family="Times,serif" font-size="14.00">R = M:1, C:1, B:0</text>
</g>
<!-- N&#45;20&#45;&gt;N&#45;26 -->
<g id="edge15" class="edge"><title>N&#45;20&#45;&gt;N&#45;26</title>
<path fill="none" stroke="blue" d="M680.352,-634.501C634.035,-617.446 567.138,-592.811 518.292,-574.824"/>
<polygon fill="blue" stroke="blue" points="519.368,-571.49 508.775,-571.319 516.949,-578.059 519.368,-571.49"/>
<text text-anchor="middle" x="638.146" y="-599.241" font-family="Times,serif" font-size="14.00">MC&#45;&gt;LB</text>
</g>
<!-- N&#45;25 -->
<g id="node17" class="node"><title>N&#45;25</title>
<ellipse fill="#cd0000" stroke="#cd0000" cx="641.146" cy="-550.571" rx="84.2917" ry="26.7407"/>
<text text-anchor="start" x="590.146" y="-554.371" font-family="Times,serif" font-size="14.00">L = M:1, C:3, B:1</text>
<text text-anchor="start" x="589.646" y="-539.371" font-family="Times,serif" font-size="14.00">R = M:2, C:0, B:0</text>
</g>
<!-- N&#45;20&#45;&gt;N&#45;25 -->
<g id="edge16" class="edge"><title>N&#45;20&#45;&gt;N&#45;25</title>
<path fill="none" stroke="black" d="M711.395,-629.178C699.236,-615.744 684.114,-599.039 671.019,-584.572"/>
<polygon fill="black" stroke="black" points="673.289,-581.865 663.984,-576.8 668.1,-586.563 673.289,-581.865"/>
<text text-anchor="middle" x="718.646" y="-599.241" font-family="Times,serif" font-size="14.00">CC&#45;&gt;LB</text>
</g>
<!-- N&#45;23 -->
<g id="node18" class="node"><title>N&#45;23</title>
<ellipse fill="#cd0000" stroke="#cd0000" cx="827.146" cy="-550.571" rx="84.2917" ry="26.7407"/>
<text text-anchor="start" x="776.146" y="-554.371" font-family="Times,serif" font-size="14.00">L = M:1, C:2, B:1</text>
<text text-anchor="start" x="775.646" y="-539.371" font-family="Times,serif" font-size="14.00">R = M:2, C:1, B:0</text>
</g>
<!-- N&#45;20&#45;&gt;N&#45;23 -->
<g id="edge17" class="edge"><title>N&#45;20&#45;&gt;N&#45;23</title>
<path fill="none" stroke="black" d="M756.896,-629.178C769.056,-615.744 784.177,-599.039 797.273,-584.572"/>
<polygon fill="black" stroke="black" points="800.192,-586.563 804.308,-576.8 795.002,-581.865 800.192,-586.563"/>
<text text-anchor="middle" x="807.146" y="-599.241" font-family="Times,serif" font-size="14.00">C&#45;&gt;LB</text>
</g>
<!-- N&#45;22 -->
<g id="node19" class="node"><title>N&#45;22</title>
<ellipse fill="#cd0000" stroke="#cd0000" cx="1013.15" cy="-550.571" rx="84.2917" ry="26.7407"/>
<text text-anchor="start" x="962.146" y="-554.371" font-family="Times,serif" font-size="14.00">L = M:2, C:1, B:1</text>
<text text-anchor="start" x="961.646" y="-539.371" font-family="Times,serif" font-size="14.00">R = M:1, C:2, B:0</text>
</g>
<!-- N&#45;20&#45;&gt;N&#45;22 -->
<g id="edge18" class="edge"><title>N&#45;20&#45;&gt;N&#45;22</title>
<path fill="none" stroke="black" d="M787.94,-634.501C834.256,-617.446 901.153,-592.811 950,-574.824"/>
<polygon fill="black" stroke="black" points="951.342,-578.059 959.517,-571.319 948.923,-571.49 951.342,-578.059"/>
<text text-anchor="middle" x="912.646" y="-599.241" font-family="Times,serif" font-size="14.00">M&#45;&gt;LB</text>
</g>
<!-- N&#45;30 -->
<g id="node20" class="node"><title>N&#45;30</title>
<ellipse fill="#cd0000" stroke="#cd0000" cx="150.146" cy="-445.831" rx="84.2917" ry="26.7407"/>
<text text-anchor="start" x="99.1457" y="-449.631" font-family="Times,serif" font-size="14.00">L = M:2, C:0, B:0</text>
<text text-anchor="start" x="98.6457" y="-434.631" font-family="Times,serif" font-size="14.00">R = M:1, C:3, B:1</text>
</g>
<!-- N&#45;26&#45;&gt;N&#45;30 -->
<g id="edge19" class="edge"><title>N&#45;26&#45;&gt;N&#45;30</title>
<path fill="none" stroke="black" d="M398.492,-530.487C346.812,-513.078 270.436,-487.351 216.045,-469.029"/>
<polygon fill="black" stroke="black" points="217.09,-465.688 206.496,-465.812 214.855,-472.321 217.09,-465.688"/>
<text text-anchor="middle" x="345.646" y="-494.501" font-family="Times,serif" font-size="14.00">CC&#45;&gt;RB</text>
</g>
<!-- N&#45;29 -->
<g id="node21" class="node"><title>N&#45;29</title>
<ellipse fill="rosybrown" stroke="rosybrown" cx="336.146" cy="-445.831" rx="84.2917" ry="26.7407"/>
<text text-anchor="start" x="285.146" y="-449.631" font-family="Times,serif" font-size="14.00">L = M:0, C:2, B:0</text>
<text text-anchor="start" x="284.646" y="-434.631" font-family="Times,serif" font-size="14.00">R = M:3, C:1, B:1</text>
</g>
<!-- N&#45;26&#45;&gt;N&#45;29 -->
<g id="edge20" class="edge"><title>N&#45;26&#45;&gt;N&#45;29</title>
<path fill="none" stroke="blue" d="M426.944,-525.223C410.613,-511.123 389.885,-493.227 372.358,-478.094"/>
<polygon fill="blue" stroke="blue" points="374.414,-475.246 364.557,-471.36 369.839,-480.544 374.414,-475.246"/>
<text text-anchor="middle" x="431.646" y="-494.501" font-family="Times,serif" font-size="14.00">MM&#45;&gt;RB</text>
</g>
<!-- N&#45;28 -->
<g id="node22" class="node"><title>N&#45;28</title>
<ellipse fill="#cd0000" stroke="#cd0000" cx="522.146" cy="-445.831" rx="84.2917" ry="26.7407"/>
<text text-anchor="start" x="471.146" y="-449.631" font-family="Times,serif" font-size="14.00">L = M:2, C:1, B:0</text>
<text text-anchor="start" x="470.646" y="-434.631" font-family="Times,serif" font-size="14.00">R = M:1, C:2, B:1</text>
</g>
<!-- N&#45;26&#45;&gt;N&#45;28 -->
<g id="edge21" class="edge"><title>N&#45;26&#45;&gt;N&#45;28</title>
<path fill="none" stroke="black" d="M471.708,-524.174C480.244,-511.085 490.771,-494.942 499.996,-480.796"/>
<polygon fill="black" stroke="black" points="503.011,-482.579 505.542,-472.291 497.148,-478.755 503.011,-482.579"/>
<text text-anchor="middle" x="513.146" y="-494.501" font-family="Times,serif" font-size="14.00">C&#45;&gt;RB</text>
</g>
<!-- N&#45;27 -->
<g id="node23" class="node"><title>N&#45;27</title>
<ellipse fill="#cd0000" stroke="#cd0000" cx="708.146" cy="-445.831" rx="84.2917" ry="26.7407"/>
<text text-anchor="start" x="657.146" y="-449.631" font-family="Times,serif" font-size="14.00">L = M:1, C:2, B:0</text>
<text text-anchor="start" x="656.646" y="-434.631" font-family="Times,serif" font-size="14.00">R = M:2, C:1, B:1</text>
</g>
<!-- N&#45;26&#45;&gt;N&#45;27 -->
<g id="edge22" class="edge"><title>N&#45;26&#45;&gt;N&#45;27</title>
<path fill="none" stroke="black" d="M505.736,-529.027C546.846,-512.332 604.928,-488.746 648.337,-471.118"/>
<polygon fill="black" stroke="black" points="649.695,-474.344 657.643,-467.339 647.061,-467.859 649.695,-474.344"/>
<text text-anchor="middle" x="619.146" y="-494.501" font-family="Times,serif" font-size="14.00">M&#45;&gt;RB</text>
</g>
<!-- N&#45;35 -->
<g id="node24" class="node"><title>N&#45;35</title>
<ellipse fill="#cd0000" stroke="#cd0000" cx="150.146" cy="-341.09" rx="84.2917" ry="26.7407"/>
<text text-anchor="start" x="99.1457" y="-344.89" font-family="Times,serif" font-size="14.00">L = M:1, C:3, B:1</text>
<text text-anchor="start" x="98.6457" y="-329.89" font-family="Times,serif" font-size="14.00">R = M:2, C:0, B:0</text>
</g>
<!-- N&#45;29&#45;&gt;N&#45;35 -->
<g id="edge23" class="edge"><title>N&#45;29&#45;&gt;N&#45;35</title>
<path fill="none" stroke="black" d="M295.327,-422.284C267.32,-406.813 229.976,-386.186 200.177,-369.726"/>
<polygon fill="black" stroke="black" points="201.636,-366.533 191.19,-364.762 198.251,-372.661 201.636,-366.533"/>
<text text-anchor="middle" x="281.146" y="-389.76" font-family="Times,serif" font-size="14.00">MC&#45;&gt;LB</text>
</g>
<!-- N&#45;33 -->
<g id="node25" class="node"><title>N&#45;33</title>
<ellipse fill="rosybrown" stroke="rosybrown" cx="336.146" cy="-341.09" rx="84.2917" ry="26.7407"/>
<text text-anchor="start" x="285.146" y="-344.89" font-family="Times,serif" font-size="14.00">L = M:0, C:3, B:1</text>
<text text-anchor="start" x="284.646" y="-329.89" font-family="Times,serif" font-size="14.00">R = M:3, C:0, B:0</text>
</g>
<!-- N&#45;29&#45;&gt;N&#45;33 -->
<g id="edge24" class="edge"><title>N&#45;29&#45;&gt;N&#45;33</title>
<path fill="none" stroke="blue" d="M336.146,-418.905C336.146,-406.615 336.146,-391.727 336.146,-378.342"/>
<polygon fill="blue" stroke="blue" points="339.646,-378.008 336.146,-368.008 332.646,-378.008 339.646,-378.008"/>
<text text-anchor="middle" x="356.146" y="-389.76" font-family="Times,serif" font-size="14.00">C&#45;&gt;LB</text>
</g>
<!-- N&#45;32 -->
<g id="node26" class="node"><title>N&#45;32</title>
<ellipse fill="#cd0000" stroke="#cd0000" cx="522.146" cy="-341.09" rx="84.2917" ry="26.7407"/>
<text text-anchor="start" x="471.146" y="-344.89" font-family="Times,serif" font-size="14.00">L = M:1, C:2, B:1</text>
<text text-anchor="start" x="470.646" y="-329.89" font-family="Times,serif" font-size="14.00">R = M:2, C:1, B:0</text>
</g>
<!-- N&#45;29&#45;&gt;N&#45;32 -->
<g id="edge25" class="edge"><title>N&#45;29&#45;&gt;N&#45;32</title>
<path fill="none" stroke="black" d="M376.964,-422.284C404.972,-406.813 442.315,-386.186 472.114,-369.726"/>
<polygon fill="black" stroke="black" points="474.04,-372.661 481.101,-364.762 470.656,-366.533 474.04,-372.661"/>
<text text-anchor="middle" x="462.646" y="-389.76" font-family="Times,serif" font-size="14.00">M&#45;&gt;LB</text>
</g>
<!-- N&#45;37 -->
<g id="node27" class="node"><title>N&#45;37</title>
<ellipse fill="rosybrown" stroke="rosybrown" cx="336.146" cy="-236.35" rx="84.2917" ry="26.7407"/>
<text text-anchor="start" x="285.146" y="-240.15" font-family="Times,serif" font-size="14.00">L = M:0, C:1, B:0</text>
<text text-anchor="start" x="284.646" y="-225.15" font-family="Times,serif" font-size="14.00">R = M:3, C:2, B:1</text>
</g>
<!-- N&#45;33&#45;&gt;N&#45;37 -->
<g id="edge26" class="edge"><title>N&#45;33&#45;&gt;N&#45;37</title>
<path fill="none" stroke="blue" d="M336.146,-314.165C336.146,-301.875 336.146,-286.987 336.146,-273.602"/>
<polygon fill="blue" stroke="blue" points="339.646,-273.268 336.146,-263.268 332.646,-273.268 339.646,-273.268"/>
<text text-anchor="middle" x="360.646" y="-285.02" font-family="Times,serif" font-size="14.00">CC&#45;&gt;RB</text>
</g>
<!-- N&#45;42 -->
<g id="node28" class="node"><title>N&#45;42</title>
<ellipse fill="#cd0000" stroke="#cd0000" cx="84.1457" cy="-131.61" rx="84.2917" ry="26.7407"/>
<text text-anchor="start" x="33.1457" y="-135.41" font-family="Times,serif" font-size="14.00">L = M:1, C:2, B:1</text>
<text text-anchor="start" x="32.6457" y="-120.41" font-family="Times,serif" font-size="14.00">R = M:2, C:1, B:0</text>
</g>
<!-- N&#45;37&#45;&gt;N&#45;42 -->
<g id="edge27" class="edge"><title>N&#45;37&#45;&gt;N&#45;42</title>
<path fill="none" stroke="black" d="M285.755,-214.806C244.942,-198.167 187.333,-174.68 144.142,-157.071"/>
<polygon fill="black" stroke="black" points="145.461,-153.829 134.88,-153.294 142.819,-160.311 145.461,-153.829"/>
<text text-anchor="middle" x="252.146" y="-180.28" font-family="Times,serif" font-size="14.00">MC&#45;&gt;LB</text>
</g>
<!-- N&#45;40 -->
<g id="node29" class="node"><title>N&#45;40</title>
<ellipse fill="#cd0000" stroke="#cd0000" cx="270.146" cy="-131.61" rx="84.2917" ry="26.7407"/>
<text text-anchor="start" x="219.146" y="-135.41" font-family="Times,serif" font-size="14.00">L = M:2, C:1, B:1</text>
<text text-anchor="start" x="218.646" y="-120.41" font-family="Times,serif" font-size="14.00">R = M:1, C:2, B:0</text>
</g>
<!-- N&#45;37&#45;&gt;N&#45;40 -->
<g id="edge28" class="edge"><title>N&#45;37&#45;&gt;N&#45;40</title>
<path fill="none" stroke="black" d="M319.831,-209.954C311.422,-196.864 301.052,-180.721 291.965,-166.575"/>
<polygon fill="black" stroke="black" points="294.851,-164.592 286.501,-158.071 288.962,-168.376 294.851,-164.592"/>
<text text-anchor="middle" x="335.146" y="-180.28" font-family="Times,serif" font-size="14.00">MM&#45;&gt;LB</text>
</g>
<!-- N&#45;39 -->
<g id="node30" class="node"><title>N&#45;39</title>
<ellipse fill="rosybrown" stroke="rosybrown" cx="456.146" cy="-131.61" rx="84.2917" ry="26.7407"/>
<text text-anchor="start" x="405.146" y="-135.41" font-family="Times,serif" font-size="14.00">L = M:0, C:2, B:1</text>
<text text-anchor="start" x="404.646" y="-120.41" font-family="Times,serif" font-size="14.00">R = M:3, C:1, B:0</text>
</g>
<!-- N&#45;37&#45;&gt;N&#45;39 -->
<g id="edge29" class="edge"><title>N&#45;37&#45;&gt;N&#45;39</title>
<path fill="none" stroke="blue" d="M364.584,-211.002C381.052,-196.903 401.955,-179.006 419.63,-163.874"/>
<polygon fill="blue" stroke="blue" points="422.176,-166.302 427.496,-157.139 417.623,-160.984 422.176,-166.302"/>
<text text-anchor="middle" x="424.146" y="-180.28" font-family="Times,serif" font-size="14.00">C&#45;&gt;LB</text>
</g>
<!-- N&#45;38 -->
<g id="node31" class="node"><title>N&#45;38</title>
<ellipse fill="rosybrown" stroke="rosybrown" cx="642.146" cy="-131.61" rx="84.2917" ry="26.7407"/>
<text text-anchor="start" x="591.146" y="-135.41" font-family="Times,serif" font-size="14.00">L = M:1, C:1, B:1</text>
<text text-anchor="start" x="590.646" y="-120.41" font-family="Times,serif" font-size="14.00">R = M:2, C:2, B:0</text>
</g>
<!-- N&#45;37&#45;&gt;N&#45;38 -->
<g id="edge30" class="edge"><title>N&#45;37&#45;&gt;N&#45;38</title>
<path fill="none" stroke="black" d="M392.627,-216.386C444.514,-198.966 521.431,-173.14 576.132,-154.774"/>
<polygon fill="black" stroke="black" points="577.369,-158.051 585.735,-151.55 575.141,-151.415 577.369,-158.051"/>
<text text-anchor="middle" x="529.646" y="-180.28" font-family="Times,serif" font-size="14.00">M&#45;&gt;LB</text>
</g>
<!-- N&#45;44 -->
<g id="node32" class="node"><title>N&#45;44</title>
<ellipse fill="royalblue" stroke="royalblue" cx="456.146" cy="-26.8701" rx="84.2917" ry="26.7407"/>
<text text-anchor="start" x="405.146" y="-30.6701" font-family="Times,serif" font-size="14.00">L = M:0, C:0, B:0</text>
<text text-anchor="start" x="404.646" y="-15.6701" font-family="Times,serif" font-size="14.00">R = M:3, C:3, B:1</text>
</g>
<!-- N&#45;39&#45;&gt;N&#45;44 -->
<g id="edge31" class="edge"><title>N&#45;39&#45;&gt;N&#45;44</title>
<path fill="none" stroke="blue" d="M456.146,-104.685C456.146,-92.3951 456.146,-77.5066 456.146,-64.1214"/>
<polygon fill="blue" stroke="blue" points="459.646,-63.7874 456.146,-53.7874 452.646,-63.7875 459.646,-63.7874"/>
<text text-anchor="middle" x="480.646" y="-75.5401" font-family="Times,serif" font-size="14.00">CC&#45;&gt;RB</text>
</g>
</g>
</svg>
