<?xml version="1.0" encoding="UTF-8" standalone="no"?>
<!DOCTYPE svg PUBLIC "-//W3C//DTD SVG 1.1//EN"
 "http://www.w3.org/Graphics/SVG/1.1/DTD/svg11.dtd">
<!-- Generated by graphviz version 2.38.0 (20140413.2041)
 -->
<!-- Title: threecoins Pages: 1 -->
<svg width="433pt" height="305pt"
 viewBox="0.00 0.00 432.94 305.00" xmlns="http://www.w3.org/2000/svg" xmlns:xlink="http://www.w3.org/1999/xlink">
<g id="graph0" class="graph" transform="scale(1 1) rotate(0) translate(4 301)">
<title>threecoins</title>
<polygon fill="white" stroke="none" points="-4,4 -4,-301 428.942,-301 428.942,4 -4,4"/>
<!-- &lt;TTT 3&gt; -->
<g id="node1" class="node"><title>&lt;TTT 3&gt;</title>
<ellipse fill="none" stroke="red" cx="270.446" cy="-18" rx="44.393" ry="18"/>
<text text-anchor="middle" x="270.446" y="-14.3" font-family="Times,serif" font-size="14.00">&lt;TTT 3&gt;</text>
</g>
<!-- &lt;TTH 0&gt; -->
<g id="node2" class="node"><title>&lt;TTH 0&gt;</title>
<ellipse fill="none" stroke="black" cx="195.446" cy="-279" rx="45.4919" ry="18"/>
<text text-anchor="middle" x="195.446" y="-275.3" font-family="Times,serif" font-size="14.00">&lt;TTH 0&gt;</text>
</g>
<!-- &lt;HTH 1&gt; -->
<g id="node3" class="node"><title>&lt;HTH 1&gt;</title>
<ellipse fill="none" stroke="black" cx="85.4458" cy="-192" rx="46.2923" ry="18"/>
<text text-anchor="middle" x="85.4458" y="-188.3" font-family="Times,serif" font-size="14.00">&lt;HTH 1&gt;</text>
</g>
<!-- &lt;TTH 0&gt;&#45;&gt;&lt;HTH 1&gt; -->
<g id="edge1" class="edge"><title>&lt;TTH 0&gt;&#45;&gt;&lt;HTH 1&gt;</title>
<path fill="none" stroke="black" d="M175.526,-262.607C158.16,-249.188 132.786,-229.581 113.39,-214.594"/>
<polygon fill="black" stroke="black" points="115.271,-211.623 105.218,-208.278 110.991,-217.162 115.271,-211.623"/>
<text text-anchor="middle" x="156.946" y="-231.8" font-family="Times,serif" font-size="14.00">OL</text>
</g>
<!-- &lt;THH 1&gt; -->
<g id="node4" class="node"><title>&lt;THH 1&gt;</title>
<ellipse fill="none" stroke="black" cx="195.446" cy="-192" rx="46.2923" ry="18"/>
<text text-anchor="middle" x="195.446" y="-188.3" font-family="Times,serif" font-size="14.00">&lt;THH 1&gt;</text>
</g>
<!-- &lt;TTH 0&gt;&#45;&gt;&lt;THH 1&gt; -->
<g id="edge2" class="edge"><title>&lt;TTH 0&gt;&#45;&gt;&lt;THH 1&gt;</title>
<path fill="none" stroke="black" d="M195.446,-260.799C195.446,-249.163 195.446,-233.548 195.446,-220.237"/>
<polygon fill="black" stroke="black" points="198.946,-220.175 195.446,-210.175 191.946,-220.175 198.946,-220.175"/>
<text text-anchor="middle" x="204.946" y="-231.8" font-family="Times,serif" font-size="14.00">OC</text>
</g>
<!-- &lt;TTT 1&gt; -->
<g id="node5" class="node"><title>&lt;TTT 1&gt;</title>
<ellipse fill="none" stroke="black" cx="320.446" cy="-192" rx="44.393" ry="18"/>
<text text-anchor="middle" x="320.446" y="-188.3" font-family="Times,serif" font-size="14.00">&lt;TTT 1&gt;</text>
</g>
<!-- &lt;TTH 0&gt;&#45;&gt;&lt;TTT 1&gt; -->
<g id="edge3" class="edge"><title>&lt;TTH 0&gt;&#45;&gt;&lt;TTT 1&gt;</title>
<path fill="none" stroke="black" d="M217.219,-263.194C237.35,-249.505 267.465,-229.027 289.98,-213.717"/>
<polygon fill="black" stroke="black" points="292.201,-216.439 298.503,-207.921 288.265,-210.65 292.201,-216.439"/>
<text text-anchor="middle" x="274.946" y="-231.8" font-family="Times,serif" font-size="14.00">OR</text>
</g>
<!-- &lt;TTH 2&gt; -->
<g id="node6" class="node"><title>&lt;TTH 2&gt;</title>
<ellipse fill="none" stroke="black" cx="161.446" cy="-105" rx="45.4919" ry="18"/>
<text text-anchor="middle" x="161.446" y="-101.3" font-family="Times,serif" font-size="14.00">&lt;TTH 2&gt;</text>
</g>
<!-- &lt;HTH 1&gt;&#45;&gt;&lt;TTH 2&gt; -->
<g id="edge4" class="edge"><title>&lt;HTH 1&gt;&#45;&gt;&lt;TTH 2&gt;</title>
<path fill="none" stroke="black" d="M81.5213,-173.932C80.1226,-163.598 80.1931,-150.605 86.4458,-141 92.8729,-131.127 102.875,-123.989 113.504,-118.845"/>
<polygon fill="black" stroke="black" points="115.109,-121.966 122.932,-114.82 112.361,-115.528 115.109,-121.966"/>
<text text-anchor="middle" x="95.9458" y="-144.8" font-family="Times,serif" font-size="14.00">OL</text>
</g>
<!-- &lt;HHH 2&gt; -->
<g id="node7" class="node"><title>&lt;HHH 2&gt;</title>
<ellipse fill="none" stroke="black" cx="47.4458" cy="-105" rx="47.3916" ry="18"/>
<text text-anchor="middle" x="47.4458" y="-101.3" font-family="Times,serif" font-size="14.00">&lt;HHH 2&gt;</text>
</g>
<!-- &lt;HTH 1&gt;&#45;&gt;&lt;HHH 2&gt; -->
<g id="edge5" class="edge"><title>&lt;HTH 1&gt;&#45;&gt;&lt;HHH 2&gt;</title>
<path fill="none" stroke="black" d="M61.3958,-176.289C54.6364,-170.83 48.1299,-163.989 44.4458,-156 41.191,-148.942 40.5745,-140.718 41.1509,-133.002"/>
<polygon fill="black" stroke="black" points="44.6376,-133.339 42.5404,-122.953 37.7036,-132.38 44.6376,-133.339"/>
<text text-anchor="middle" x="53.9458" y="-144.8" font-family="Times,serif" font-size="14.00">OC</text>
</g>
<!-- &lt;HTT 2&gt; -->
<g id="node8" class="node"><title>&lt;HTT 2&gt;</title>
<ellipse fill="none" stroke="black" cx="270.446" cy="-105" rx="45.4919" ry="18"/>
<text text-anchor="middle" x="270.446" y="-101.3" font-family="Times,serif" font-size="14.00">&lt;HTT 2&gt;</text>
</g>
<!-- &lt;HTH 1&gt;&#45;&gt;&lt;HTT 2&gt; -->
<g id="edge6" class="edge"><title>&lt;HTH 1&gt;&#45;&gt;&lt;HTT 2&gt;</title>
<path fill="none" stroke="black" d="M120.115,-179.983C147.843,-171.064 183.101,-159.437 189.446,-156 198.906,-150.875 199.512,-146.996 208.446,-141 216.825,-135.376 226.165,-129.78 235.001,-124.765"/>
<polygon fill="black" stroke="black" points="236.932,-127.697 243.966,-119.774 233.526,-121.581 236.932,-127.697"/>
<text text-anchor="middle" x="217.946" y="-144.8" font-family="Times,serif" font-size="14.00">OR</text>
</g>
<!-- &lt;THH 1&gt;&#45;&gt;&lt;TTH 2&gt; -->
<g id="edge8" class="edge"><title>&lt;THH 1&gt;&#45;&gt;&lt;TTH 2&gt;</title>
<path fill="none" stroke="black" d="M181.621,-174.814C177.444,-169.178 173.232,-162.605 170.446,-156 167.429,-148.849 165.423,-140.706 164.089,-133.098"/>
<polygon fill="black" stroke="black" points="167.553,-132.593 162.655,-123.198 160.625,-133.597 167.553,-132.593"/>
<text text-anchor="middle" x="179.946" y="-144.8" font-family="Times,serif" font-size="14.00">OC</text>
</g>
<!-- &lt;THH 1&gt;&#45;&gt;&lt;HHH 2&gt; -->
<g id="edge7" class="edge"><title>&lt;THH 1&gt;&#45;&gt;&lt;HHH 2&gt;</title>
<path fill="none" stroke="black" d="M170.674,-176.773C146.277,-162.761 108.814,-141.245 81.5977,-125.614"/>
<polygon fill="black" stroke="black" points="83.2093,-122.504 72.7946,-120.558 79.7231,-128.574 83.2093,-122.504"/>
<text text-anchor="middle" x="139.946" y="-144.8" font-family="Times,serif" font-size="14.00">OL</text>
</g>
<!-- &lt;THT 2&gt; -->
<g id="node9" class="node"><title>&lt;THT 2&gt;</title>
<ellipse fill="none" stroke="black" cx="379.446" cy="-105" rx="45.4919" ry="18"/>
<text text-anchor="middle" x="379.446" y="-101.3" font-family="Times,serif" font-size="14.00">&lt;THT 2&gt;</text>
</g>
<!-- &lt;THH 1&gt;&#45;&gt;&lt;THT 2&gt; -->
<g id="edge9" class="edge"><title>&lt;THH 1&gt;&#45;&gt;&lt;THT 2&gt;</title>
<path fill="none" stroke="black" d="M227.464,-178.738C241.927,-172.673 258.977,-164.772 273.446,-156 282.646,-150.422 283.138,-146.396 292.446,-141 305.95,-133.171 321.541,-126.297 335.763,-120.761"/>
<polygon fill="black" stroke="black" points="337.226,-123.95 345.347,-117.147 334.756,-117.401 337.226,-123.95"/>
<text text-anchor="middle" x="301.946" y="-144.8" font-family="Times,serif" font-size="14.00">OR</text>
</g>
<!-- &lt;TTT 1&gt;&#45;&gt;&lt;TTH 2&gt; -->
<g id="edge12" class="edge"><title>&lt;TTT 1&gt;&#45;&gt;&lt;TTH 2&gt;</title>
<path fill="none" stroke="black" d="M293.81,-177.572C281.663,-171.272 267.182,-163.51 254.446,-156 243.933,-149.802 242.032,-147.072 231.446,-141 221.054,-135.039 209.516,-129.033 198.855,-123.719"/>
<polygon fill="black" stroke="black" points="200.281,-120.52 189.763,-119.246 197.191,-126.801 200.281,-120.52"/>
<text text-anchor="middle" x="263.946" y="-144.8" font-family="Times,serif" font-size="14.00">OR</text>
</g>
<!-- &lt;TTT 1&gt;&#45;&gt;&lt;HTT 2&gt; -->
<g id="edge10" class="edge"><title>&lt;TTT 1&gt;&#45;&gt;&lt;HTT 2&gt;</title>
<path fill="none" stroke="black" d="M321.99,-173.8C322.133,-163.666 320.93,-150.927 315.446,-141 312.502,-135.672 308.376,-130.884 303.805,-126.684"/>
<polygon fill="black" stroke="black" points="305.786,-123.784 295.823,-120.18 301.364,-129.21 305.786,-123.784"/>
<text text-anchor="middle" x="329.946" y="-144.8" font-family="Times,serif" font-size="14.00">OL</text>
</g>
<!-- &lt;TTT 1&gt;&#45;&gt;&lt;THT 2&gt; -->
<g id="edge11" class="edge"><title>&lt;TTT 1&gt;&#45;&gt;&lt;THT 2&gt;</title>
<path fill="none" stroke="black" d="M332.102,-174.207C340.724,-161.786 352.602,-144.673 362.303,-130.697"/>
<polygon fill="black" stroke="black" points="365.187,-132.68 368.014,-122.469 359.437,-128.688 365.187,-132.68"/>
<text text-anchor="middle" x="363.946" y="-144.8" font-family="Times,serif" font-size="14.00">OC</text>
</g>
<!-- &lt;TTH 2&gt;&#45;&gt;&lt;TTT 3&gt; -->
<g id="edge15" class="edge"><title>&lt;TTH 2&gt;&#45;&gt;&lt;TTT 3&gt;</title>
<path fill="none" stroke="black" d="M181.185,-88.6071C198.393,-75.1881 223.536,-55.5811 242.755,-40.5935"/>
<polygon fill="black" stroke="black" points="245.12,-43.1878 250.854,-34.2783 240.816,-37.6678 245.12,-43.1878"/>
<text text-anchor="middle" x="232.946" y="-57.8" font-family="Times,serif" font-size="14.00">OR</text>
</g>
<!-- &lt;HTH 3&gt; -->
<g id="node10" class="node"><title>&lt;HTH 3&gt;</title>
<ellipse fill="none" stroke="black" cx="52.4458" cy="-18" rx="46.2923" ry="18"/>
<text text-anchor="middle" x="52.4458" y="-14.3" font-family="Times,serif" font-size="14.00">&lt;HTH 3&gt;</text>
</g>
<!-- &lt;TTH 2&gt;&#45;&gt;&lt;HTH 3&gt; -->
<g id="edge13" class="edge"><title>&lt;TTH 2&gt;&#45;&gt;&lt;HTH 3&gt;</title>
<path fill="none" stroke="black" d="M141.707,-88.6071C124.606,-75.2714 99.6677,-55.8244 80.4951,-40.8733"/>
<polygon fill="black" stroke="black" points="82.4444,-37.955 72.4064,-34.5656 78.1398,-43.475 82.4444,-37.955"/>
<text text-anchor="middle" x="123.946" y="-57.8" font-family="Times,serif" font-size="14.00">OL</text>
</g>
<!-- &lt;THH 3&gt; -->
<g id="node11" class="node"><title>&lt;THH 3&gt;</title>
<ellipse fill="none" stroke="black" cx="162.446" cy="-18" rx="46.2923" ry="18"/>
<text text-anchor="middle" x="162.446" y="-14.3" font-family="Times,serif" font-size="14.00">&lt;THH 3&gt;</text>
</g>
<!-- &lt;TTH 2&gt;&#45;&gt;&lt;THH 3&gt; -->
<g id="edge14" class="edge"><title>&lt;TTH 2&gt;&#45;&gt;&lt;THH 3&gt;</title>
<path fill="none" stroke="black" d="M161.648,-86.799C161.785,-75.1626 161.969,-59.5479 162.125,-46.2368"/>
<polygon fill="black" stroke="black" points="165.626,-46.216 162.244,-36.1754 158.626,-46.1335 165.626,-46.216"/>
<text text-anchor="middle" x="171.946" y="-57.8" font-family="Times,serif" font-size="14.00">OC</text>
</g>
<!-- &lt;HTT 2&gt;&#45;&gt;&lt;TTT 3&gt; -->
<g id="edge16" class="edge"><title>&lt;HTT 2&gt;&#45;&gt;&lt;TTT 3&gt;</title>
<path fill="none" stroke="black" d="M270.446,-86.799C270.446,-75.1626 270.446,-59.5479 270.446,-46.2368"/>
<polygon fill="black" stroke="black" points="273.946,-46.1754 270.446,-36.1754 266.946,-46.1755 273.946,-46.1754"/>
<text text-anchor="middle" x="279.946" y="-57.8" font-family="Times,serif" font-size="14.00">OL</text>
</g>
<!-- &lt;THT 2&gt;&#45;&gt;&lt;TTT 3&gt; -->
<g id="edge17" class="edge"><title>&lt;THT 2&gt;&#45;&gt;&lt;TTT 3&gt;</title>
<path fill="none" stroke="black" d="M359.707,-88.6071C342.499,-75.1881 317.356,-55.5811 298.136,-40.5935"/>
<polygon fill="black" stroke="black" points="300.076,-37.6678 290.038,-34.2783 295.771,-43.1878 300.076,-37.6678"/>
<text text-anchor="middle" x="341.946" y="-57.8" font-family="Times,serif" font-size="14.00">OC</text>
</g>
</g>
</svg>
